<svg width="279" height="56" viewBox="0 0 279 56" fill="none" xmlns="http://www.w3.org/2000/svg">
<path d="M29.2 13.248V18.848L7.216 30.56L4.72 31.2L7.184 31.84L29.2 43.488V49.088L0.4 34.464V27.776L29.2 13.248ZM47.945 55.2H41.225L63.945 0.799999H70.345L47.945 55.2ZM108.386 52V23.168L110.274 7.232L110.114 7.2L105.186 22.528L99.65 36H96.45L90.818 22.56L85.57 7.2L85.378 7.232L87.746 23.168V52H81.986V10.72L81.09 4L87.938 3.36L95.81 21.6L98.082 29.6L100.29 21.6L107.522 4L114.146 3.36V52H108.386ZM154.395 52H147.995V46.816L144.987 50.4C144.624 50.6773 144.155 50.944 143.579 51.2C143.024 51.456 142.427 51.6907 141.787 51.904C141.147 52.096 140.496 52.2453 139.835 52.352C139.174 52.48 138.544 52.544 137.947 52.544C136.347 52.544 134.736 52.2987 133.115 51.808C131.494 51.296 130.032 50.56 128.731 49.6C127.43 48.6187 126.363 47.4133 125.531 45.984C124.72 44.5333 124.315 42.8693 124.315 40.992C124.315 39.008 124.731 37.3013 125.563 35.872C126.416 34.4213 127.526 33.2267 128.891 32.288C130.256 31.3493 131.814 30.656 133.563 30.208C135.312 29.76 137.083 29.536 138.875 29.536C140.902 29.536 142.662 29.6533 144.155 29.888C145.648 30.1013 146.928 30.4107 147.995 30.816V29.44C147.995 28.1813 147.835 27.0507 147.515 26.048C147.216 25.0453 146.736 24.2027 146.075 23.52C145.414 22.816 144.56 22.2827 143.515 21.92C142.491 21.5573 141.264 21.376 139.835 21.376C138.491 21.376 137.328 21.4613 136.347 21.632C135.387 21.7813 134.491 21.952 133.659 22.144C133.168 22.2507 132.699 22.368 132.251 22.496C131.803 22.624 131.366 22.752 130.939 22.88L128.635 18.592C129.531 18.1867 130.598 17.8027 131.835 17.44C132.859 17.1413 134.022 16.8747 135.323 16.64C136.646 16.384 138.256 16.256 140.155 16.256C142.608 16.256 144.699 16.5867 146.427 17.248C148.155 17.9093 149.563 18.8373 150.651 20.032C151.739 21.2267 152.528 22.6667 153.019 24.352C153.51 26.016 153.755 27.872 153.755 29.92V46.24L154.395 52ZM147.995 35.2L146.075 34.944C145.776 34.9227 145.382 34.8907 144.891 34.848C144.4 34.8053 143.867 34.7733 143.291 34.752L141.595 34.688C141.04 34.6667 140.56 34.656 140.155 34.656C138.96 34.656 137.787 34.7627 136.635 34.976C135.483 35.1893 134.448 35.5413 133.531 36.032C132.635 36.5227 131.899 37.1733 131.323 37.984C130.768 38.7733 130.491 39.7653 130.491 40.96C130.491 41.92 130.704 42.7947 131.131 43.584C131.558 44.3733 132.123 45.056 132.827 45.632C133.552 46.208 134.374 46.656 135.291 46.976C136.23 47.2747 137.2 47.424 138.203 47.424C140.187 47.424 141.968 47.0507 143.547 46.304C145.126 45.536 146.608 44.512 147.995 43.232V35.2ZM178.772 39.968C178.772 41.376 178.847 42.56 178.996 43.52C179.167 44.4587 179.401 45.2267 179.7 45.824C180.02 46.4 180.404 46.816 180.852 47.072C181.321 47.3067 181.855 47.424 182.452 47.424C183.455 47.424 184.447 47.3067 185.428 47.072C186.409 46.8373 187.327 46.5707 188.18 46.272C189.033 45.952 189.791 45.6427 190.452 45.344C191.113 45.024 191.625 44.7893 191.988 44.64L194.196 48.512C194.004 48.6827 193.535 48.992 192.788 49.44C192.063 49.8667 191.135 50.3147 190.004 50.784C188.895 51.2533 187.636 51.6587 186.228 52C184.82 52.3627 183.348 52.544 181.812 52.544C179.892 52.544 178.345 52.192 177.172 51.488C176.02 50.784 175.135 49.824 174.516 48.608C173.897 47.392 173.492 45.984 173.3 44.384C173.108 42.7627 173.012 41.0347 173.012 39.2V21.92H163.7V16.8H173.012V10.112L178.612 6.56V16.8H194.1L193.46 21.92H178.772V39.968ZM214.637 52H208.877V7.2L208.237 0.799999L214.637 0.159996V21.6L217.485 17.92C218.317 17.4507 219.512 17.056 221.069 16.736C222.626 16.416 224.632 16.256 227.085 16.256C230.306 16.256 232.76 17.3227 234.445 19.456C236.152 21.568 237.005 24.6293 237.005 28.64V52H230.925V29.312C230.925 27.8827 230.797 26.6667 230.541 25.664C230.306 24.6613 229.965 23.84 229.517 23.2C229.069 22.56 228.514 22.1013 227.853 21.824C227.192 21.5253 226.445 21.376 225.613 21.376C224.333 21.376 223.106 21.504 221.933 21.76C220.781 22.016 219.725 22.3467 218.765 22.752C217.805 23.136 216.962 23.5627 216.237 24.032C215.533 24.5013 215 24.9387 214.637 25.344V52ZM278.95 27.776V34.464L250.15 49.088V43.488L272.166 31.84L274.63 31.2L272.134 30.56L250.15 18.848V13.248L278.95 27.776Z" fill="white"/>
</svg>
